<svg id="Layer_1" style="enable-background:new 0 0 110.5 36.3;" version="1.1" viewBox="0 0 110.5 36.3" x="0px" xml:space="preserve" xmlns="http://www.w3.org/2000/svg" xmlns:xlink="http://www.w3.org/1999/xlink" y="0px"><style type="text/css">.st0{fill:#003057}</style><g>
<polygon class="st0" points="49.1,32.5 50.2,29.5 51,29.5 49.6,33.3 48.6,33.3 47.1,29.5 48,29.5  "></polygon>
<g>
<g>
<path class="st0" d="M40.9,32.2c0.3-0.3,0.5-0.7,0.5-1.3c0-0.6-0.2-1-0.5-1.3c-0.3-0.3-0.8-0.5-1.4-0.5h-0.8v3.5h0.8
C40.1,32.6,40.6,32.5,40.9,32.2 M41.9,32.2c-0.2,0.4-0.5,0.7-0.9,0.9c-0.4,0.2-0.9,0.3-1.4,0.3h-1.6v-4.9h1.6
c0.5,0,1,0.1,1.4,0.3c0.4,0.2,0.7,0.5,0.9,0.9c0.2,0.4,0.3,0.8,0.3,1.3C42.2,31.4,42.1,31.8,41.9,32.2"></path>
<path class="st0" d="M44.3,29.7c0.2-0.1,0.5-0.2,0.8-0.2v0.9h-0.2c-0.3,0-0.6,0.1-0.8,0.3c-0.2,0.2-0.3,0.5-0.3,0.8v1.9H43v-3.8
h0.8v0.8C43.9,30,44.1,29.8,44.3,29.7"></path>
<path class="st0" d="M46.6,33.3h-0.8v-3.8h0.8V33.3z M45.8,28c0.1-0.1,0.2-0.1,0.4-0.1c0.2,0,0.3,0,0.4,0.1
c0.1,0.1,0.1,0.2,0.1,0.3s0,0.2-0.1,0.3c-0.1,0.1-0.2,0.1-0.4,0.1c-0.2,0-0.3,0-0.4-0.1c-0.1-0.1-0.1-0.2-0.1-0.3
S45.7,28.1,45.8,28"></path>
</g>
<g>
<path class="st0" d="M52.4,33.3h-0.8v-3.8h0.8V33.3z M51.7,28c0.1-0.1,0.2-0.1,0.4-0.1c0.2,0,0.3,0,0.4,0.1
c0.1,0.1,0.1,0.2,0.1,0.3s0,0.2-0.1,0.3c-0.1,0.1-0.2,0.1-0.4,0.1c-0.2,0-0.3,0-0.4-0.1c-0.1-0.1-0.1-0.2-0.1-0.3
S51.6,28.1,51.7,28"></path>
<path class="st0" d="M56.6,29.9c0.3,0.3,0.4,0.7,0.4,1.2v2.2h-0.8v-2.2c0-0.3-0.1-0.6-0.3-0.8c-0.2-0.2-0.4-0.3-0.7-0.3
c-0.3,0-0.6,0.1-0.8,0.3c-0.2,0.2-0.3,0.5-0.3,0.9v2h-0.8v-3.8h0.8v0.8c0.1-0.3,0.3-0.5,0.5-0.7c0.2-0.2,0.5-0.2,0.8-0.2
C56,29.4,56.3,29.6,56.6,29.9"></path>
<path class="st0" d="M58.9,30.5c-0.2,0.2-0.3,0.5-0.3,0.9c0,0.4,0.1,0.7,0.3,0.9c0.2,0.2,0.5,0.3,0.8,0.3c0.2,0,0.4-0.1,0.6-0.2
s0.3-0.3,0.4-0.4c0.1-0.2,0.2-0.4,0.2-0.7c0-0.3-0.1-0.5-0.2-0.7c-0.1-0.2-0.2-0.3-0.4-0.4c-0.2-0.1-0.4-0.2-0.6-0.2
C59.4,30.1,59.1,30.3,58.9,30.5 M60.4,29.7c0.2,0.2,0.4,0.4,0.5,0.7v-0.9h0.8v3.9c0,0.4-0.1,0.7-0.2,1c-0.1,0.3-0.4,0.5-0.6,0.7
c-0.3,0.2-0.6,0.2-1,0.2c-0.5,0-1-0.1-1.3-0.4c-0.3-0.3-0.5-0.6-0.6-1h0.8c0.1,0.2,0.2,0.4,0.4,0.5c0.2,0.1,0.4,0.2,0.7,0.2
c0.3,0,0.6-0.1,0.8-0.3c0.2-0.2,0.3-0.5,0.3-0.9v-0.9c-0.1,0.3-0.3,0.5-0.5,0.7c-0.2,0.2-0.5,0.3-0.9,0.3c-0.3,0-0.6-0.1-0.9-0.2
s-0.5-0.4-0.6-0.7c-0.1-0.3-0.2-0.6-0.2-1.1c0-0.4,0.1-0.7,0.2-1c0.1-0.3,0.4-0.5,0.6-0.7c0.3-0.2,0.6-0.2,0.9-0.2
C59.8,29.4,60.1,29.5,60.4,29.7"></path>
</g>
<polygon class="st0" points="70.5,28.4 69.3,33.3 68.3,33.3 67.3,29.5 66.2,33.3 65.3,33.3 64,28.4 64.9,28.4 65.8,32.4
66.8,28.4 67.7,28.4 68.8,32.4 69.7,28.4     "></polygon>
<g>
<path class="st0" d="M74.5,29.9c0.3,0.3,0.4,0.7,0.4,1.2v2.2h-0.8v-2.2c0-0.3-0.1-0.6-0.3-0.8c-0.2-0.2-0.4-0.3-0.7-0.3
c-0.3,0-0.6,0.1-0.8,0.3c-0.2,0.2-0.3,0.5-0.3,0.9v2h-0.8v-5.2H72v2.2c0.1-0.3,0.3-0.5,0.5-0.7c0.2-0.2,0.5-0.2,0.8-0.2
C73.8,29.4,74.2,29.6,74.5,29.9"></path>
<path class="st0" d="M76.7,30.5c-0.2,0.2-0.3,0.5-0.3,0.9c0,0.4,0.1,0.7,0.3,0.9c0.2,0.2,0.5,0.3,0.8,0.3c0.2,0,0.4-0.1,0.6-0.2
c0.2-0.1,0.3-0.3,0.4-0.4c0.1-0.2,0.2-0.4,0.2-0.7c0-0.3-0.1-0.5-0.2-0.7c-0.1-0.2-0.2-0.3-0.4-0.4c-0.2-0.1-0.4-0.2-0.6-0.2
C77.2,30.1,76.9,30.3,76.7,30.5 M78.2,29.7c0.2,0.2,0.4,0.4,0.5,0.7v-0.9h0.8v3.8h-0.8v-0.9c-0.1,0.3-0.3,0.5-0.5,0.7
c-0.2,0.2-0.5,0.3-0.9,0.3c-0.3,0-0.6-0.1-0.9-0.2c-0.3-0.2-0.5-0.4-0.6-0.7c-0.1-0.3-0.2-0.6-0.2-1.1c0-0.4,0.1-0.7,0.2-1
c0.1-0.3,0.4-0.5,0.6-0.7c0.3-0.2,0.6-0.2,0.9-0.2C77.7,29.4,78,29.5,78.2,29.7"></path>
<path class="st0" d="M82.4,32.6v0.7H82c-0.4,0-0.7-0.1-0.9-0.3c-0.2-0.2-0.3-0.5-0.3-1v-1.9h-0.6v-0.7h0.6v-1h0.8v1h0.9v0.7h-0.9
v1.9c0,0.2,0,0.4,0.1,0.5c0.1,0.1,0.2,0.1,0.4,0.1H82.4z"></path>
<path class="st0" d="M83.9,28.4c0,0.3-0.1,0.5-0.2,0.6c-0.1,0.1-0.4,0.2-0.6,0.2V29c0.1,0,0.2,0,0.3-0.1c0.1-0.1,0.1-0.2,0.1-0.3
v-0.1H83v-0.7h0.8C83.9,27.9,83.9,28.2,83.9,28.4"></path>
<path class="st0" d="M86.9,29.8c0.3,0.2,0.4,0.5,0.5,0.9h-0.8c0-0.2-0.1-0.4-0.3-0.5C86.2,30.1,86,30,85.8,30
c-0.2,0-0.4,0-0.5,0.1c-0.1,0.1-0.2,0.2-0.2,0.4c0,0.1,0,0.2,0.1,0.3c0.1,0.1,0.2,0.1,0.3,0.2c0.1,0,0.3,0.1,0.5,0.1
c0.3,0.1,0.5,0.1,0.7,0.2s0.3,0.2,0.5,0.3c0.1,0.2,0.2,0.4,0.2,0.6c0,0.3-0.1,0.6-0.4,0.8c-0.2,0.2-0.6,0.3-1,0.3
c-0.5,0-0.9-0.1-1.2-0.3c-0.3-0.2-0.5-0.5-0.5-0.9h0.8c0,0.2,0.1,0.4,0.3,0.5c0.2,0.1,0.4,0.2,0.6,0.2c0.2,0,0.3,0,0.5-0.1
c0.1-0.1,0.2-0.2,0.2-0.4c0-0.1,0-0.2-0.1-0.3c-0.1-0.1-0.2-0.1-0.3-0.2c-0.1,0-0.3-0.1-0.5-0.1c-0.3-0.1-0.5-0.1-0.7-0.2
c-0.2-0.1-0.3-0.2-0.4-0.3c-0.1-0.1-0.2-0.3-0.2-0.6c0-0.3,0.1-0.6,0.4-0.8c0.2-0.2,0.6-0.3,1-0.3C86.3,29.4,86.6,29.6,86.9,29.8
"></path>
<path class="st0" d="M90.7,30.8h0.9c0.6,0,1-0.3,1-0.9c0-0.3-0.1-0.5-0.2-0.6c-0.2-0.2-0.4-0.2-0.7-0.2h-0.9V30.8z M92.5,33.3
l-1.2-2h-0.6v2h-0.8v-4.9h1.7c0.6,0,1,0.1,1.3,0.4c0.3,0.3,0.4,0.6,0.4,1.1c0,0.4-0.1,0.7-0.3,0.9c-0.2,0.2-0.5,0.4-0.9,0.5
l1.3,2H92.5z"></path>
<path class="st0" d="M94.9,33.3h-0.8v-3.8h0.8V33.3z M94.1,28c0.1-0.1,0.2-0.1,0.4-0.1s0.3,0,0.4,0.1c0.1,0.1,0.1,0.2,0.1,0.3
s0,0.2-0.1,0.3c-0.1,0.1-0.2,0.1-0.4,0.1s-0.3,0-0.4-0.1c-0.1-0.1-0.1-0.2-0.1-0.3S94,28.1,94.1,28"></path>
<path class="st0" d="M96.8,30.5c-0.2,0.2-0.3,0.5-0.3,0.9c0,0.4,0.1,0.7,0.3,0.9c0.2,0.2,0.5,0.3,0.8,0.3c0.2,0,0.4-0.1,0.6-0.2
c0.2-0.1,0.3-0.3,0.4-0.4c0.1-0.2,0.2-0.4,0.2-0.7c0-0.3-0.1-0.5-0.2-0.7c-0.1-0.2-0.2-0.3-0.4-0.4c-0.2-0.1-0.4-0.2-0.6-0.2
C97.3,30.1,97,30.3,96.8,30.5 M98.3,29.7c0.2,0.2,0.4,0.4,0.5,0.7v-0.9h0.8v3.9c0,0.4-0.1,0.7-0.2,1S99,34.8,98.7,35
c-0.3,0.2-0.6,0.2-1,0.2c-0.5,0-1-0.1-1.3-0.4c-0.3-0.3-0.5-0.6-0.6-1h0.8c0.1,0.2,0.2,0.4,0.4,0.5c0.2,0.1,0.4,0.2,0.7,0.2
c0.3,0,0.6-0.1,0.8-0.3c0.2-0.2,0.3-0.5,0.3-0.9v-0.9c-0.1,0.3-0.3,0.5-0.5,0.7c-0.2,0.2-0.5,0.3-0.9,0.3c-0.3,0-0.6-0.1-0.9-0.2
c-0.3-0.2-0.5-0.4-0.6-0.7c-0.1-0.3-0.2-0.6-0.2-1.1c0-0.4,0.1-0.7,0.2-1c0.1-0.3,0.4-0.5,0.6-0.7c0.3-0.2,0.6-0.2,0.9-0.2
C97.7,29.4,98,29.5,98.3,29.7"></path>
<path class="st0" d="M103.8,29.9c0.3,0.3,0.4,0.7,0.4,1.2v2.2h-0.8v-2.2c0-0.3-0.1-0.6-0.3-0.8c-0.2-0.2-0.4-0.3-0.7-0.3
c-0.3,0-0.6,0.1-0.8,0.3c-0.2,0.2-0.3,0.5-0.3,0.9v2h-0.8v-5.2h0.8v2.2c0.1-0.3,0.3-0.5,0.5-0.7c0.2-0.2,0.5-0.2,0.8-0.2
C103.1,29.4,103.5,29.6,103.8,29.9"></path>
<path class="st0" d="M107,32.6v0.7h-0.5c-0.4,0-0.7-0.1-0.9-0.3c-0.2-0.2-0.3-0.5-0.3-1v-1.9h-0.6v-0.7h0.6v-1h0.8v1h0.9v0.7
h-0.9v1.9c0,0.2,0,0.4,0.1,0.5c0.1,0.1,0.2,0.1,0.4,0.1H107z"></path>
<path class="st0" d="M31,21.4c-2.6,0-4.4-1.8-4.4-5.1c0-3.1,1.7-5.1,4.4-5.1c2.7,0,4.4,2,4.4,5.1C35.4,19.5,33.6,21.4,31,21.4
M31,7.4c-5.1,0-8.2,4.4-8.2,9c0,4.3,2.7,8.7,8.2,8.7s8.2-4.4,8.2-8.7C39.2,11.8,36.1,7.4,31,7.4"></path>
<path class="st0" d="M107.3,20.9v3.9h-4.1c-1.4,0-2.5-1.1-2.5-2.5v-8.7c0-1.6-1.2-2.6-3-2.6c-2.8,0-3.4,2.4-3.4,4.3v9.5h-3.9v-17
h3.7v1.4c1.4-1.1,3.2-1.7,4.9-1.7c3,0,5.5,1.6,5.5,5.3V20c0,0.5,0.4,0.9,0.9,0.9H107.3z"></path>
<path class="st0" d="M84.9,18.7c-0.7,1.7-2.1,2.7-4,2.7c-2.7,0-4.5-1.8-4.5-5.1c0-3.1,1.8-5.2,4.5-5.2c1.9,0,3.4,1.1,4,2.8
c0.3,0.7,0.4,1.5,0.4,2.4C85.4,17.2,85.2,18,84.9,18.7 M84.5,7.8v0.6c-1.1-0.7-2.5-1.1-4-1.1c-5.2,0-8.2,4.4-8.2,9.1
c0,4.3,2.7,8.8,8.2,8.8c1.6,0,2.9-0.4,4-1v0.5h4.2V7.8H84.5z"></path>
<path class="st0" d="M71.3,12.7v12.1h-3.9V13.5c0-1.6-1.2-2.6-2.8-2.6c-2.8,0-3.3,2.8-3.3,4.6v9.2h-3.9V13.5
c0-1.6-1.2-2.6-2.8-2.6c-2.8,0-3.3,2.8-3.3,4.6v9.2H43c-1.3,0-2.6-1-2.7-2.3V1h3.9v19c0,0,0,0,0,0c0,0.4,0.3,0.8,0.8,0.8
c0,0,0.1,0,0.1,0h2.3V7.8h3.7v1.4c0.6-0.5,2-1.7,4.8-1.7c2,0,3.7,0.7,4.6,2.2c0.7-0.7,2.4-2.2,5.4-2.2S71.3,9,71.3,12.7"></path>
<path class="st0" d="M22.6,20.9v3.9H19c-1.3,0-2.6-1-2.7-2.3v-7.2H7.2v9.5H3.2V1.6h4.1v9.6h9.1V1.6h4.1V20c0,0.5,0.4,0.9,0.9,0.9
H22.6z"></path>
</g>
</g>
</g>
</svg>